<?xml version="1.0" encoding="UTF-8" standalone="no"?>
<!DOCTYPE svg PUBLIC "-//W3C//DTD SVG 1.1//EN" "http://www.w3.org/Graphics/SVG/1.1/DTD/svg11.dtd">
<!-- Created with Vectornator (http://vectornator.io/) -->
<svg height="100%" stroke-miterlimit="10" style="fill-rule:nonzero;clip-rule:evenodd;stroke-linecap:round;stroke-linejoin:round;" version="1.1" viewBox="0 0 1024 1024" width="100%" xml:space="preserve" xmlns="http://www.w3.org/2000/svg" xmlns:vectornator="http://vectornator.io" xmlns:xlink="http://www.w3.org/1999/xlink">
<defs>
<filter color-interpolation-filters="sRGB" filterUnits="userSpaceOnUse" height="1038" id="Filter" width="1038" x="-7" y="-7">
<feDropShadow dx="0" dy="0" flood-color="#dbdbdb" flood-opacity="1" in="SourceGraphic" result="Shadow" stdDeviation="29.5"/>
</filter>
</defs>
<clipPath id="ArtboardFrame">
<rect height="1024" width="1024" x="0" y="0"/>
</clipPath>
<g clip-path="url(#ArtboardFrame)" id="User-icon" vectornator:layerName="User icon">
<path d="M249.091 67L774.909 67C875.475 67 957 148.525 957 249.091L957 774.909C957 875.475 875.475 957 774.909 957L249.091 957C148.525 957 67 875.475 67 774.909L67 249.091C67 148.525 148.525 67 249.091 67Z" fill="#ffffff" fill-rule="evenodd" filter="url(#Filter)" stroke="#e2e8f0" stroke-linecap="butt" stroke-linejoin="round" stroke-width="30" vectornator:shadowAngle="0" vectornator:shadowColor="#dbdbdb" vectornator:shadowOffset="0" vectornator:shadowOpacity="1" vectornator:shadowRadius="59"/>
<path d="M447.748 687.544C368.407 711.347 342.952 675.875 320.146 647.004C309.373 633.365 299.191 621.2 284.199 617.452" fill="none" fill-rule="evenodd" opacity="1" stroke="#38BDF8" stroke-linecap="round" stroke-linejoin="round" stroke-width="60"/>
<path d="M611.298 757.637L611.298 667.218C613.071 644.68 605.071 622.468 589.335 606.237C662.699 598.06 739.801 570.256 739.801 442.688C739.795 410.067 727.247 378.698 704.755 355.072C715.405 326.533 714.652 294.987 702.652 266.989C702.652 266.989 675.082 258.812 611.298 301.568C557.747 287.055 501.299 287.055 447.748 301.568C383.964 258.812 356.395 266.989 356.395 266.989C344.394 294.987 343.641 326.533 354.292 355.072C331.631 378.873 319.071 410.526 319.245 443.389C319.245 570.023 396.347 597.826 469.711 606.938C454.165 623.002 446.18 644.918 447.748 667.218L447.748 757.637" fill="#0369A1" fill-rule="evenodd" opacity="1" stroke="none"/>
</g>
</svg>
