<?xml version="1.0" encoding="UTF-8" standalone="no"?>
<!DOCTYPE svg PUBLIC "-//W3C//DTD SVG 1.1//EN" "http://www.w3.org/Graphics/SVG/1.1/DTD/svg11.dtd">
<!-- Created with Vectornator (http://vectornator.io/) -->
<svg height="100%" stroke-miterlimit="10" style="fill-rule:nonzero;clip-rule:evenodd;stroke-linecap:round;stroke-linejoin:round;" version="1.1" viewBox="0 0 1024 1024" width="100%" xml:space="preserve" xmlns="http://www.w3.org/2000/svg" xmlns:vectornator="http://vectornator.io" xmlns:xlink="http://www.w3.org/1999/xlink">
<defs>
<filter color-interpolation-filters="sRGB" filterUnits="userSpaceOnUse" height="1038" id="Filter" width="1038" x="-21.5548" y="13">
<feDropShadow dx="0" dy="0" flood-color="#dbdbdb" flood-opacity="1" in="SourceGraphic" result="Shadow" stdDeviation="29.5"/>
</filter>
</defs>
<clipPath id="ArtboardFrame">
<rect height="1024" width="1024" x="0" y="0"/>
</clipPath>
<g clip-path="url(#ArtboardFrame)" id="Icon-Bg" vectornator:layerName="Icon Bg">
<path d="M234.536 87L760.354 87C860.92 87 942.445 168.525 942.445 269.091L942.445 794.909C942.445 895.475 860.92 977 760.354 977L234.536 977C133.97 977 52.4452 895.475 52.4452 794.909L52.4452 269.091C52.4452 168.525 133.97 87 234.536 87Z" fill="#ffffff" fill-rule="evenodd" filter="url(#Filter)" stroke="#e2e8f0" stroke-linecap="butt" stroke-linejoin="round" stroke-width="30" vectornator:shadowAngle="0" vectornator:shadowColor="#dbdbdb" vectornator:shadowOffset="0" vectornator:shadowOpacity="1" vectornator:shadowRadius="59"/>
<path d="M682.48 326.229C635.445 282.877 576.941 261.201 507.073 261.201C433.627 261.201 371.02 285.823 319.355 335.173C267.69 384.523 241.806 445.868 241.806 519.313C241.806 589.708 266.428 650.211 315.567 700.929C364.917 751.646 431.207 777.005 514.649 777.005C564.946 777.005 614.295 766.693 662.698 745.964C678.482 739.23 686.163 721.131 679.744 705.243L679.744 705.243C673.115 688.828 654.385 681.252 638.076 688.197C595.987 706.295 554.739 715.344 514.544 715.344C450.568 715.344 401.008 695.878 365.864 656.84C330.824 617.907 313.252 572.135 313.252 519.629C313.252 462.598 332.087 415.037 369.652 376.841C407.111 338.75 453.304 319.6 508.02 319.6C558.422 319.6 601.037 335.278 635.761 366.635C670.485 397.991 687.846 437.45 687.846 485.011C687.846 517.525 679.849 544.672 663.961 566.243C648.072 587.919 631.552 598.652 614.401 598.652C605.141 598.652 600.511 593.706 600.511 583.71C600.511 575.608 601.143 566.138 602.3 555.194L621.872 395.15L554.529 395.15L550.215 410.828C533.063 396.834 514.228 389.784 493.815 389.784C461.406 389.784 433.627 402.726 410.583 428.506C387.434 454.285 375.965 487.536 375.965 528.152C375.965 567.821 386.172 599.914 406.69 624.221C427.209 648.633 451.831 660.733 480.662 660.733C506.442 660.733 528.433 649.895 546.742 628.325C560.526 649.053 580.835 659.365 607.666 659.365C647.125 659.365 681.217 642.214 709.943 607.806C738.669 573.503 753.085 532.045 753.085 483.537C753.085 422.087 729.62 369.581 682.48 326.229ZM527.381 568.347C515.491 584.341 501.286 592.443 484.766 592.443C473.507 592.443 464.458 586.551 457.618 574.766C450.673 562.981 447.201 548.355 447.201 530.783C447.201 509.107 452.041 491.64 461.722 478.382C471.402 465.123 483.398 458.389 497.708 458.389C510.125 458.389 521.173 463.335 530.854 473.331C540.534 483.327 545.374 496.585 545.374 513.21C545.269 533.939 539.271 552.248 527.381 568.347Z" fill="#0369A1" fill-rule="evenodd" opacity="1" stroke="#0369A1" stroke-linecap="butt" stroke-linejoin="round" stroke-width="10"/>
<!-- <path d="M601.087 618.427L819.682 618.427C835.261 618.427 847.89 631.056 847.89 646.635L847.89 773.75C847.89 789.328 835.261 801.957 819.682 801.957L601.087 801.957C585.509 801.957 572.88 789.328 572.88 773.75L572.88 646.635C572.88 631.056 585.509 618.427 601.087 618.427Z" fill="#ffffff" fill-rule="evenodd" opacity="1" stroke="none"/>
<path d="M604.533 618.358L709.506 705.869L815.651 618.358L604.533 618.358Z" fill="#38BDF8" fill-rule="evenodd" opacity="1" stroke="none"/>
<path d="M841.506 628.698L716.74 731.589C715.683 732.46 714.526 733.051 713.327 733.486C713.236 733.52 713.147 733.566 713.056 733.597C712.522 733.776 711.987 733.897 711.441 733.992C711.2 734.036 710.957 734.087 710.714 734.115C710.313 734.158 709.908 734.153 709.506 734.152C709.113 734.153 708.728 734.157 708.336 734.115C708.034 734.082 707.734 734.024 707.436 733.967C707 733.883 706.57 733.797 706.142 733.659C705.784 733.545 705.442 733.378 705.094 733.228C704.767 733.083 704.438 732.95 704.121 732.772C703.688 732.533 703.282 732.244 702.876 731.946C702.706 731.819 702.524 731.727 702.359 731.589L701.89 731.194L701.878 731.194L579.096 628.808C575.158 633.66 572.787 639.843 572.787 646.579L572.787 773.736C572.787 789.32 585.424 801.957 601.008 801.957L819.668 801.957C835.252 801.957 847.89 789.32 847.89 773.736L847.89 646.579C847.89 639.796 845.495 633.564 841.506 628.698Z" fill="#38BDF8" fill-rule="evenodd" opacity="1" stroke="none"/> -->
</g>
</svg>
