<svg width="1512" height="4681" viewBox="0 0 1512 4681" fill="none" xmlns="http://www.w3.org/2000/svg">
  <g filter="url(#filter0_f_45_2)">
  <path  fill-rule="evenodd" clip-rule="evenodd" d="M1112.11 2065.01C1046.95 2064.41 990.623 2113.27 983.303 2179.43C977.243 2234.16 965.534 2279.95 948.773 2318.45C934.156 2352.03 915.622 2380.25 892.711 2405.08C871.612 2427.94 846.349 2448.42 815.407 2468.1C788.03 2485.52 757.459 2501.69 714.799 2521.94C706.869 2525.71 698.569 2529.6 688.068 2534.48C683.923 2536.41 665.505 2544.94 660.532 2547.26C607.699 2571.83 575.818 2587.73 542.461 2607.2C496.762 2633.88 458.135 2662.43 424.603 2696.16C343.102 2778.13 299.264 2884.24 295.094 3019.27C290.566 3165.89 327.525 3285.17 403.147 3384.77C434.287 3425.78 470.955 3462.37 515.085 3498.41C546.963 3524.45 575.191 3544.81 629.594 3582.25C630.209 3582.68 657.536 3601.51 663.692 3605.8C699.797 3630.93 724.833 3649.55 747.398 3668.53C773.142 3690.19 793.95 3711.11 811.041 3732.79C848.856 3780.77 870.81 3835.64 877.362 3908.91C881.431 3954.4 862.713 4005.64 819.13 4062.82C775.999 4119.4 711.768 4177.13 632.353 4232.75C567.411 4278.23 495.907 4319.83 427.228 4354.03C401.74 4366.73 378.42 4377.47 360.692 4384.91C357.185 4386.39 354.071 4387.64 351.451 4388.67C351.364 4388.7 351.35 4388.71 351.264 4388.75C346.808 4389.83 342.363 4391.12 337.951 4392.71C271.163 4416.82 236.561 4490.52 260.675 4557.31C278.37 4606.32 314.9 4630.45 353.461 4639.17C364.174 4641.59 373.413 4642.43 382.228 4642.38C385.166 4642.36 388.051 4642.25 390.933 4642.06C400.092 4641.43 407.124 4640.14 414.344 4638.36C420.378 4636.88 425.788 4635.19 431.755 4633.11C439.711 4630.33 449.295 4626.6 460.201 4622.02C483.23 4612.36 511.572 4599.29 541.871 4584.2C621.347 4544.62 703.698 4496.7 779.862 4443.36C879.266 4373.75 962.394 4299.04 1023.64 4218.68C1060.65 4170.12 1089.3 4119.91 1108.36 4067.75C1130.05 4008.4 1138.98 3947.44 1133.49 3886.01C1122.47 3762.82 1081.58 3660.65 1013 3573.63C984.289 3537.2 951.333 3504.08 912.961 3471.79C883.236 3446.78 852.578 3423.95 810.585 3394.73C804.019 3390.16 775.968 3370.83 775.389 3370.43C726.593 3336.84 702.523 3319.49 677.755 3299.27C648.315 3275.21 625.692 3252.64 607.951 3229.27C589.173 3204.54 575.461 3178.37 566.219 3148.54C555.625 3114.35 550.641 3074.56 552.103 3027.23C553.293 2988.7 559.468 2957.88 569.809 2932.86C578.552 2911.71 590.591 2893.93 606.961 2877.47C623.26 2861.08 644.371 2845.47 672.103 2829.28C696.71 2814.92 722.931 2801.83 768.961 2780.42C773.764 2778.19 792.167 2769.68 796.47 2767.67C807.552 2762.52 816.446 2758.34 825.103 2754.23C876.489 2729.83 915.524 2709.17 953.407 2685.07C1002.14 2654.07 1044.53 2619.74 1081.69 2579.48C1168.69 2485.2 1221.62 2363.6 1238.89 2207.72C1239.37 2203.31 1239.62 2198.94 1239.67 2194.59C1240.26 2129.43 1191.4 2073.11 1125.24 2065.78C1120.82 2065.29 1116.46 2065.04 1112.11 2065.01ZM408.666 4388.08C409.164 4388.18 409.608 4388.23 410.113 4388.34C410.219 4388.37 410.327 4388.4 410.433 4388.43C409.849 4388.29 409.252 4388.2 408.666 4388.08ZM421.255 4391.45C452.097 4401.05 480.508 4421.44 497.461 4457.86C499.267 4461.74 501.014 4465.73 502.549 4469.98C501.043 4465.81 499.341 4461.77 497.461 4457.86C481.843 4425.34 453.783 4402.03 421.255 4391.45Z" fill="url(#paint0_linear_45_2)"/>
  <path fill-rule="evenodd" clip-rule="evenodd" d="M589.828 -197.926C530.062 -199.959 475.079 -159.873 460.561 -99.4618C443.968 -30.4198 486.501 39.008 555.543 55.6009C555.574 55.6083 559.233 56.5209 560.98 56.967C566.188 58.2963 572.315 59.9129 579.302 61.8152C599.608 67.3444 622.377 74.0021 646.963 81.7438C717.04 103.81 787.013 129.996 851.471 159.904C934.7 198.522 1001.6 240.222 1045.4 282.181C1066.45 302.346 1080.97 321.456 1089.11 338.699C1095.78 352.817 1098.01 365.162 1096.59 378.021C1090.53 432.745 1078.82 478.534 1062.06 517.038C1047.45 550.618 1028.91 578.838 1006 603.664C984.902 626.524 959.638 647.007 928.695 666.69C901.318 684.105 870.748 700.301 828.088 720.556C820.157 724.322 811.858 728.21 801.355 733.092C797.21 735.019 778.793 743.555 773.82 745.869C720.987 770.439 689.106 786.314 655.749 805.788C610.05 832.468 571.45 861.046 537.918 894.771C456.417 976.74 412.552 1082.85 408.382 1217.89C408.1 1227.05 407.967 1236.09 408.007 1245.04C408.614 1379.32 445.54 1489.97 516.436 1583.35C547.575 1624.36 584.243 1660.95 628.373 1697.01C660.25 1723.04 688.479 1743.39 742.882 1780.84C743.496 1781.26 753.168 1787.93 755.98 1789.87C800.172 1820.31 823.896 1837.35 847.883 1856.59C876.613 1879.64 899.506 1901.42 918.275 1923.9C959.975 1973.87 983.77 2030.55 990.653 2107.49C992.385 2126.85 990.088 2146.76 983.582 2167.87C962.654 2235.72 1000.69 2307.71 1068.54 2328.63C1081.26 2332.56 1094.14 2334.4 1106.8 2334.37C1161.6 2334.23 1212.31 2298.78 1229.31 2243.65C1245.41 2191.43 1251.57 2138.14 1246.78 2084.59C1235.19 1954.99 1190.63 1848.95 1115.68 1759.15C1085.01 1722.39 1050 1689.09 1008.78 1656.02C978.533 1631.75 950.913 1611.87 901.828 1578.08C898.969 1576.11 889.256 1569.42 888.677 1569.02C839.881 1535.43 815.811 1518.08 791.043 1497.85C761.603 1473.81 738.979 1451.23 721.24 1427.86C702.461 1403.13 688.75 1376.95 679.507 1347.13C668.913 1312.95 663.929 1273.14 665.392 1225.82C666.581 1187.28 672.755 1156.49 683.097 1131.47C691.84 1110.32 703.879 1092.52 720.249 1076.06C736.548 1059.66 757.658 1044.06 785.392 1027.87C809.998 1013.5 836.219 1000.41 882.249 979.012C887.051 976.774 905.455 968.263 909.757 966.266C920.839 961.106 929.734 956.949 938.392 952.843C989.779 928.44 1028.84 907.752 1066.72 883.654C1115.45 852.654 1157.82 818.321 1194.97 778.065C1281.99 683.784 1334.92 562.212 1352.18 406.333C1358.98 344.824 1348.06 284.891 1321.61 228.878C1298.98 180.956 1265.66 137.094 1223.26 96.4759C1155.85 31.9106 1066.4 -23.8325 959.686 -73.3455C884.145 -108.397 804.11 -138.366 724.186 -163.533C696.272 -172.322 670.299 -179.918 646.855 -186.301C638.53 -188.568 631.08 -190.532 624.569 -192.194C622.216 -192.794 616.217 -194.274 615.623 -194.417C606.993 -196.491 598.366 -197.636 589.828 -197.926Z" fill="url(#paint1_linear_45_2)"/>
  </g>
  <defs>
    <filter id="filter0_f_45_2" x="-147" y="-598" width="1901.15" height="5640.38" filterUnits="userSpaceOnUse" color-interpolation-filters="sRGB">
      <!-- <feFlood flood-opacity="0" result="BackgroundImageFix"/> -->
      <!-- <feBlend mode="normal" in="SourceGraphic" in2="BackgroundImageFix" result="shape"/> -->
      <feGaussianBlur stdDeviation="100" result="effect1_foregroundBlur_45_2"/>
    </filter>

    <linearGradient id="paint0_linear_45_2" x1="788.565" y1="354" x2="-694.972" y2="2018.61" gradientUnits="userSpaceOnUse">
      <stop stop-color="#FF5095"/>
      <stop offset="0.889217" stop-color="#FFBB57" stop-opacity="1"/>
    </linearGradient>
    <linearGradient id="paint1_linear_45_2" x1="868.178" y1="90.7926" x2="213.125" y2="1297.93" gradientUnits="userSpaceOnUse">
      <stop stop-color="#FF5095"/>
      <stop offset="1" stop-color="#FFBB57" stop-opacity="0.8"/>
    </linearGradient>
  </defs>
</svg>
